# xmcd
#
# Track frame offsets:
#   150
#   19905
#   32210
#   46030
#   63337
#   80979
#   93807
#   107632
#   120595
#   135450
#   148637
#   161547
#   176380
#   189080
#
# Disc length: 2755 seconds
#
# Revision: 0
# Processed by: cddbd v1.5.1PL0 Copyright (c) Steve Scherf et al.
# Submitted via: uFREEDB ActiveX Control 1.5
#
DISCID=ae0ac10e
DTITLE=Louvemos o Senhor - louvemos
DYEAR=1900
DGENRE=Gospel and Religious
TTITLE0=Deus esta com saudades de voce
TTITLE1=Prece a Maria
TTITLE2=Nao temas
TTITLE3=Teu olhar
TTITLE4=Vou repousar
TTITLE5=Coraçao renovado
TTITLE6=de um sorriso
TTITLE7=Deus de Deus
TTITLE8=Teu coraçao
TTITLE9=Salmo 147
TTITLE10=Creio em ti, Senhor
TTITLE11=Salmo 92
TTITLE12=Aleluia, ele Ressuscitou
TTITLE13=Nas maos do oleiro
EXTD=
EXTT0=
EXTT1=
EXTT2=
EXTT3=
EXTT4=
EXTT5=
EXTT6=
EXTT7=
EXTT8=
EXTT9=
EXTT10=
EXTT11=
EXTT12=
EXTT13=
PLAYORDER=
